<svg width="480" height="260" viewBox="0 0 480 260" xmlns="http://www.w3.org/2000/svg">
  <!-- 背景 -->
  <rect width="480" height="260" fill="#fafafa" rx="8"/>
  <!-- 标题 -->
  <text x="240" y="24" text-anchor="middle" font-size="14" font-weight="bold" fill="#333">证券市场线（SML）</text>
  <!-- 坐标轴 -->
  <line x1="70" y1="200" x2="440" y2="200" stroke="#666" stroke-width="1.5"/>
  <line x1="70" y1="200" x2="70" y2="30" stroke="#666" stroke-width="1.5"/>
  <text x="440" y="220" text-anchor="end" font-size="12" fill="#666">Beta</text>
  <text x="30" y="30" text-anchor="start" font-size="12" fill="#666">E(r)</text>
  <!-- X 轴刻度 -->
  <line x1="70" y1="200" x2="70" y2="204" stroke="#666"/>
  <text x="70" y="218" text-anchor="middle" font-size="10" fill="#666">0</text>
  <line x1="160" y1="200" x2="160" y2="204" stroke="#666"/>
  <text x="160" y="218" text-anchor="middle" font-size="10" fill="#666">0.5</text>
  <line x1="250" y1="200" x2="250" y2="204" stroke="#666"/>
  <text x="250" y="218" text-anchor="middle" font-size="10" fill="#666">1.0</text>
  <line x1="340" y1="200" x2="340" y2="204" stroke="#666"/>
  <text x="340" y="218" text-anchor="middle" font-size="10" fill="#666">1.5</text>
  <line x1="430" y1="200" x2="430" y2="204" stroke="#666"/>
  <text x="430" y="218" text-anchor="middle" font-size="10" fill="#666">2.0</text>
  <!-- SML 直线 -->
  <line x1="70" y1="173" x2="430" y2="49" stroke="#4a90d9" stroke-width="2.5"/>
  <text x="435" y="45" font-size="11" font-weight="bold" fill="#4a90d9">SML</text>
  <!-- r_f 截距 -->
  <circle cx="70" cy="173" r="4" fill="#4a90d9"/>
  <text x="82" y="170" font-size="11" fill="#666">r_f = 3%</text>
  <!-- M 市场组合 -->
  <circle cx="250" cy="111" r="6" fill="#e74c3c"/>
  <text x="260" y="105" font-size="11" font-weight="bold" fill="#e74c3c">M</text>
  <text x="260" y="119" font-size="10" fill="#666">β=1, E(r)=10%</text>
  <!-- 斜率标注 -->
  <text x="370" y="90" font-size="10" fill="#666">斜率 = 市场风险溢价</text>
  <text x="370" y="103" font-size="10" fill="#666">= E(r_m) − r_f = 7%</text>
</svg>