<svg width="480" height="270" viewBox="0 0 480 270" xmlns="http://www.w3.org/2000/svg">
  <!-- 背景 -->
  <rect width="480" height="270" fill="#fafafa" rx="8"/>
  <!-- 标题 -->
  <text x="240" y="24" text-anchor="middle" font-size="14" font-weight="bold" fill="#333">Beta 回归散点图</text>
  <!-- 坐标轴 -->
  <line x1="70" y1="200" x2="440" y2="200" stroke="#666" stroke-width="1.5"/>
  <line x1="70" y1="200" x2="70" y2="35" stroke="#666" stroke-width="1.5"/>
  <!-- 轴标签 -->
  <text x="260" y="252" text-anchor="middle" font-size="11" fill="#666">市场超额收益 (r_m − r_f)</text>
  <text x="240" y="265" text-anchor="middle" font-size="11" fill="#666"></text>
  <text x="22" y="35" text-anchor="start" font-size="10" fill="#666">资产超额</text>
  <text x="22" y="48" text-anchor="start" font-size="10" fill="#666">收益</text>
  <text x="22" y="61" text-anchor="start" font-size="10" fill="#666">(r_i − r_f)</text>
  <!-- 回归拟合线 -->
  <line x1="90" y1="182" x2="410" y2="55" stroke="#4a90d9" stroke-width="2.5"/>
  <!-- 散点（每个月的数据） -->
  <circle cx="105" cy="178" r="3" fill="#4a90d9" opacity="0.5"/>
  <circle cx="125" cy="168" r="3" fill="#4a90d9" opacity="0.5"/>
  <circle cx="140" cy="175" r="3" fill="#4a90d9" opacity="0.5"/>
  <circle cx="160" cy="155" r="3" fill="#4a90d9" opacity="0.5"/>
  <circle cx="180" cy="148" r="3" fill="#4a90d9" opacity="0.5"/>
  <circle cx="200" cy="140" r="3" fill="#4a90d9" opacity="0.5"/>
  <circle cx="215" cy="145" r="3" fill="#4a90d9" opacity="0.5"/>
  <circle cx="235" cy="125" r="3" fill="#4a90d9" opacity="0.5"/>
  <circle cx="255" cy="130" r="3" fill="#4a90d9" opacity="0.5"/>
  <circle cx="275" cy="112" r="3" fill="#4a90d9" opacity="0.5"/>
  <circle cx="295" cy="118" r="3" fill="#4a90d9" opacity="0.5"/>
  <circle cx="315" cy="98" r="3" fill="#4a90d9" opacity="0.5"/>
  <circle cx="335" cy="92" r="3" fill="#4a90d9" opacity="0.5"/>
  <circle cx="360" cy="78" r="3" fill="#4a90d9" opacity="0.5"/>
  <circle cx="385" cy="68" r="3" fill="#4a90d9" opacity="0.5"/>
  <circle cx="400" cy="62" r="3" fill="#4a90d9" opacity="0.5"/>
  <!-- 斜率标注 -->
  <text x="350" y="110" font-size="12" font-weight="bold" fill="#4a90d9">斜率 = β</text>
  <!-- 散点说明 -->
  <text x="350" y="230" font-size="10" fill="#666">每个点 = 一个月的数据</text>
</svg>