<svg width="480" height="240" viewBox="0 0 480 240" xmlns="http://www.w3.org/2000/svg">
  <rect width="480" height="240" fill="#fafafa" rx="8"/>
  <text x="240" y="24" text-anchor="middle" font-size="14" font-weight="bold" fill="#333">正态分布（钟形曲线）</text>
  <line x1="40" y1="190" x2="440" y2="190" stroke="#666" stroke-width="1.5"/>
  <path d="M40,190 C60,189 80,188 100,185 C120,180 140,170 160,155 C180,135 195,105 210,75 C220,55 228,42 240,38 C252,42 260,55 270,75 C285,105 300,135 320,155 C340,170 360,180 380,185 C400,188 420,189 440,190" fill="none" stroke="#4a90d9" stroke-width="2.5"/>
  <path d="M40,190 C40,190 80,188 100,185 C112,182 122,177 132,172 L132,190 Z" fill="#e74c3c" fill-opacity="0.35" stroke="#e74c3c" stroke-width="1"/>
  <line x1="132" y1="172" x2="132" y2="198" stroke="#e74c3c" stroke-width="2" stroke-dasharray="4,3"/>
  <line x1="240" y1="38" x2="240" y2="198" stroke="#999" stroke-width="1" stroke-dasharray="4,3"/>
  <text x="80" y="182" text-anchor="middle" font-size="12" font-weight="bold" fill="#e74c3c">5%</text>
  <text x="286" y="140" text-anchor="middle" font-size="13" fill="#4a90d9">95%</text>
  <text x="240" y="215" text-anchor="middle" font-size="12" fill="#666">均值 (0)</text>
  <text x="132" y="220" text-anchor="middle" font-size="11" font-weight="bold" fill="#e74c3c">−1.65σ</text>
  <text x="68" y="214" text-anchor="start" font-size="10" fill="#e74c3c">↑ 分界线</text>
</svg>
