<svg width="480" height="260" viewBox="0 0 480 260" xmlns="http://www.w3.org/2000/svg">
  <!-- 背景 -->
  <rect width="480" height="260" fill="#fafafa" rx="8"/>
  <!-- 标题 -->
  <text x="240" y="24" text-anchor="middle" font-size="14" font-weight="bold" fill="#333">无差异曲线（Indifference Curves）</text>
  <!-- 坐标轴 -->
  <line x1="70" y1="220" x2="450" y2="220" stroke="#666" stroke-width="1.5"/>
  <line x1="70" y1="220" x2="70" y2="35" stroke="#666" stroke-width="1.5"/>
  <!-- 轴标签 -->
  <text x="450" y="240" text-anchor="end" font-size="12" fill="#666">风险 σ</text>
  <text x="30" y="40" text-anchor="start" font-size="12" fill="#666">收益率 E(r)</text>
  <!-- IC1（效用较低）— 开口向上抛物线：σ=0 处水平，越往右越陡 -->
  <path d="M70,205 C170,205 280,180 360,110" fill="none" stroke="#999" stroke-width="2" stroke-dasharray="6,3"/>
  <text x="365" y="113" font-size="11" fill="#999">IC1</text>
  <!-- IC2 -->
  <path d="M70,170 C170,170 280,140 360,70" fill="none" stroke="#4a90d9" stroke-width="2.5"/>
  <text x="365" y="73" font-size="11" font-weight="bold" fill="#4a90d9">IC2</text>
  <!-- IC2 上的两个等效用点 -->
  <circle cx="162" cy="162" r="4" fill="#e74c3c"/>
  <text x="162" y="152" text-anchor="middle" font-size="10" fill="#e74c3c">A</text>
  <circle cx="295" cy="115" r="4" fill="#e74c3c"/>
  <text x="295" y="105" text-anchor="middle" font-size="10" fill="#e74c3c">B</text>
  <!-- IC3（效用更高） -->
  <path d="M70,130 C170,130 280,95 360,42" fill="none" stroke="#27ae60" stroke-width="2"/>
  <text x="365" y="45" font-size="11" fill="#27ae60">IC3</text>
  <!-- 标注 -->
  <text x="90" y="90" font-size="11" fill="#333">↑ 效用递增</text>
  <text x="200" y="240" font-size="10" fill="#999">σ=0 处水平，越往右越陡（抛物线）</text>
</svg>