<svg width="480" height="250" viewBox="0 0 480 250" xmlns="http://www.w3.org/2000/svg">
  <!-- 背景 -->
  <rect width="480" height="250" fill="#fafafa" rx="8"/>
  <!-- 标题 -->
  <text x="240" y="24" text-anchor="middle" font-size="14" font-weight="bold" fill="#333">切线组合 T 与资本配置线（CAL）</text>
  <!-- 坐标轴 -->
  <line x1="70" y1="210" x2="450" y2="210" stroke="#666" stroke-width="1.5"/>
  <line x1="70" y1="210" x2="70" y2="30" stroke="#666" stroke-width="1.5"/>
  <text x="450" y="230" text-anchor="end" font-size="12" fill="#666">风险 σ</text>
  <text x="30" y="30" text-anchor="start" font-size="12" fill="#666">收益率 E(r)</text>
  <!-- 有效前沿 -->
  <path d="M165,148 C155,120 178,80 235,65 C290,50 360,44 410,42"
    fill="none" stroke="#4a90d9" stroke-width="2.5"/>
  <!-- 前沿下弧（虚线） -->
  <path d="M165,148 C175,172 215,190 275,195 C340,197 390,185 410,170"
    fill="none" stroke="#999" stroke-width="1.5" stroke-dasharray="4,3"/>
  <!-- CAL 线（从 R_f 经过 T 延伸） -->
  <line x1="70" y1="188" x2="315" y2="38" stroke="#e74c3c" stroke-width="2"/>
  <text x="318" y="34" font-size="11" font-weight="bold" fill="#e74c3c">CAL</text>
  <!-- R_f 点 -->
  <circle cx="70" cy="188" r="4" fill="#e74c3c"/>
  <text x="82" y="198" font-size="11" fill="#e74c3c">R_f</text>
  <!-- T 切点 -->
  <circle cx="235" cy="65" r="6" fill="#e74c3c"/>
  <text x="245" y="58" font-size="11" font-weight="bold" fill="#e74c3c">T（最优风险组合）</text>
  <!-- MVP 点 -->
  <circle cx="165" cy="148" r="4" fill="#4a90d9"/>
  <text x="120" y="155" font-size="10" fill="#4a90d9">MVP</text>
</svg>